<svg xmlns="http://www.w3.org/2000/svg" width="50.42" height="82.771" viewBox="0 0 50.42 82.771"><g transform="translate(-226.294 -4249.828)"><path d="M48.988,73.058l-4.33-2.124L41.5,21.4l2.71-2.439,1.3-15.805L45.13,3a37.063,37.063,0,0,0-5.9-1.679l-.162-.034L37.129,3.065,36.944,7.3c-.754-.144-1.545-.278-2.362-.4L34.837.557,34.546.52A66.26,66.26,0,0,0,27.739,0h-.18l-.984,1.56V6.246c-.864-.016-1.82-.017-2.73,0V1.56L22.861,0H22.68a65.958,65.958,0,0,0-6.807.52l-.289.037L15.838,6.9c-.813.12-1.605.254-2.363.4L13.29,3.065,11.356,1.278l-.161.034A37.242,37.242,0,0,0,5.3,2.99l-.383.159,1.3,15.806,2.7,2.445L5.762,70.934l-4.33,2.124L0,82.771H50.42Z" transform="translate(226.294 4249.828)" fill="#a1c9e7" opacity="0.2"/><path d="M34.052,44.564V37.7s-.014-.305-.049-.542c-.154-.921-.782-3.234-3.221-3.234s-3.066,2.313-3.22,3.234c-.035.237-.049.542-.049.542v6.86h6.538Z" transform="translate(220.721 4242.957)" fill="#fff"/><path d="M48.988,73.058l-4.33-2.124L41.5,21.4l2.71-2.439,1.3-15.805-.38-.159a37.114,37.114,0,0,0-5.9-1.679l-.162-.034L37.129,3.065,36.944,7.3c-.754-.144-1.545-.278-2.362-.4L34.837.557,34.546.52A66.094,66.094,0,0,0,27.739,0l-.18,0-.984,1.56V6.246c-.864-.016-1.82-.017-2.73,0V1.56L22.861,0,22.68,0A66.059,66.059,0,0,0,15.873.52l-.289.037L15.838,6.9c-.813.12-1.605.254-2.363.4L13.29,3.065,11.356,1.278l-.161.034A37.254,37.254,0,0,0,5.3,2.99l-.383.159,1.3,15.806L8.921,21.4,5.762,70.934l-4.33,2.124L0,82.771H50.42ZM39.629,2.234A37.68,37.68,0,0,1,44.64,3.68l-.181,2.2A44.332,44.332,0,0,0,39.52,4.363ZM28.235.835c2.09.067,4.01.225,5.749.437L33.905,3.25c-1.744-.26-3.659-.462-5.709-.567Zm-6.05,0,.038,1.848c-2.049.105-3.964.307-5.709.567l-.078-1.978C18.174,1.06,20.095.9,22.185.835M5.779,3.68a37.667,37.667,0,0,1,5.013-1.446L10.9,4.363A44.332,44.332,0,0,0,5.96,5.881ZM6.959,18.036l-.278-3.371a45.22,45.22,0,0,1,6.067-1.72l-.03-.671a46.551,46.551,0,0,0-6.093,1.7L6.29,9.9c.646-.2,1.475-.454,2.5-.728L8.726,8.5c-1.01.267-1.834.512-2.491.718L6,6.4a42.088,42.088,0,0,1,4.923-1.531l.192,3.8.3-.082a45,45,0,0,1,5.219-.977l.047-.006-.151-3.86c1.74-.26,3.652-.463,5.7-.568l.072,3.426H22.3l.01.508c.792-.035,1.624-.05,2.473-.056h0l.427,0,.427,0h0c.848.006,1.682.021,2.474.056l.01-.508h-.006l.072-3.426c2.049.105,3.961.308,5.7.568l-.15,3.86.046.006A45.042,45.042,0,0,1,39,8.593l.3.082.193-3.8A42.052,42.052,0,0,1,44.417,6.4l-.231,2.821c-.658-.206-1.482-.451-2.492-.718l-.067.671c1.027.274,1.857.524,2.5.728L43.8,13.978a46.589,46.589,0,0,0-6.093-1.7l-.03.671a45.183,45.183,0,0,1,6.067,1.72l-.277,3.371c-1.517-.671-8.118-3.3-18.235-3.191h-.033c-10.116-.108-16.719,2.521-18.235,3.191M6.808,67.4c.706-.035,3.363-.159,7.322-.263l.02-.668c-3.859.1-6.489.222-7.3.262L7.152,62c.482-.015,1.828-.058,3.811-.106l.03-.668c-1.919.046-3.255.088-3.8.105L7.484,56.8c.668-.081,3.232-.372,6.981-.625l.021-.671c-3.6.242-6.121.521-6.959.619l.329-5.155c.734-.105,3.9-.534,8.56-.816l.006-.667c-4.461.269-7.57.671-8.522.8l.353-5.542c.371-.05,1.838-.239,4.148-.437l.03-.671c-2.173.183-3.61.361-4.134.43l.36-5.642a75.744,75.744,0,0,1,7.862-1.117l.006-.612a78.368,78.368,0,0,0-7.828,1.1l.347-5.445c.319-.072,1.459-.32,3.239-.6l.03-.68c-1.611.251-2.726.478-3.225.587l.355-5.563a48.514,48.514,0,0,1,7.195-1.283l.033-.671A50.325,50.325,0,0,0,9.486,25.39l.259-4.06a57.028,57.028,0,0,1,15.038-2.208h0c.144,0,.283-.008.427-.009s.284.006.427.009h0A57.037,57.037,0,0,1,40.675,21.33l.258,4.06a50.285,50.285,0,0,0-7.183-1.252l.033.671a48.536,48.536,0,0,1,7.195,1.283l.354,5.563c-.5-.108-1.614-.336-3.225-.587l.03.68c1.781.28,2.921.528,3.239.6l.347,5.445A78.339,78.339,0,0,0,33.9,36.7l0,.612a75.67,75.67,0,0,1,7.862,1.117l.36,5.642c-.524-.069-1.96-.246-4.134-.43l.03.671c2.309.2,3.777.387,4.147.437l.353,5.542c-.952-.132-4.061-.534-8.522-.8l.006.667c4.657.282,7.825.711,8.561.816l.328,5.155c-.837-.1-3.362-.377-6.958-.619l.021.671c3.748.253,6.312.545,6.981.625l.289,4.531c-.542-.018-1.879-.059-3.8-.105l.029.668c1.984.048,3.329.091,3.812.106l.3,4.734c-.811-.04-3.441-.161-7.3-.262l.02.668c3.959.1,6.617.228,7.323.263l.225,3.53H31.856V61.2c0-.061-.18-5.309-6.629-5.493l-.017,0-.017,0c-6.449.184-6.628,5.432-6.628,5.493v9.738H6.583Zm22.533-4.831v8.36h-3.7V58.607a3.944,3.944,0,0,1,2.754,1.107,3.343,3.343,0,0,1,.7,1.169,5.984,5.984,0,0,1,.254,1.691m-4.557-3.967V70.934h-3.7v-8.36a6.017,6.017,0,0,1,.254-1.691,3.368,3.368,0,0,1,.7-1.169,3.945,3.945,0,0,1,2.754-1.107M2.152,73.793H48.268l.27,1.835H1.881Zm23.074,8.159H.949l.834-5.657H48.637l.833,5.657H25.227Z" transform="translate(226.294 4249.829)" fill="#fff"/></g></svg>